<svg xmlns="http://www.w3.org/2000/svg" width="900" height="700" viewBox="0 0 900 700">
  <defs>
    <linearGradient id="g3" x1="0" y1="0" x2="1" y2="1">
      <stop offset="0" stop-color="#a855f7"/>
      <stop offset="1" stop-color="#f97316"/>
    </linearGradient>
  </defs>
  <rect width="900" height="700" rx="42" fill="#ffffff"/>
  <rect x="26" y="26" width="848" height="648" rx="34" fill="#f6fbff" stroke="#dbeafe"/>

  <g transform="translate(96 100)">
    <text x="0" y="0" font-family="system-ui, -apple-system, Segoe UI, Roboto, Arial, sans-serif" font-size="22" font-weight="800" fill="#0f172a">Netzwerk & Koordination</text>
    <text x="0" y="30" font-family="system-ui, -apple-system, Segoe UI, Roboto, Arial, sans-serif" font-size="14" fill="#475569">Übersicht über Beteiligte, Aufgaben, nächste Schritte</text>

    <g transform="translate(0 76)">
      <rect width="708" height="440" rx="28" fill="#ffffff" stroke="#dbeafe"/>

      <g transform="translate(60 74)">
        <circle cx="50" cy="50" r="36" fill="url(#g3)"/>
        <circle cx="230" cy="50" r="36" fill="#22c55e"/>
        <circle cx="410" cy="50" r="36" fill="#0ea5e9"/>
        <circle cx="590" cy="50" r="36" fill="#eab308"/>

        <path d="M86 50 H194" stroke="#cbd5e1" stroke-width="8" stroke-linecap="round"/>
        <path d="M266 50 H374" stroke="#cbd5e1" stroke-width="8" stroke-linecap="round"/>
        <path d="M446 50 H554" stroke="#cbd5e1" stroke-width="8" stroke-linecap="round"/>

        <g fill="#475569" font-family="system-ui, -apple-system, Segoe UI, Roboto, Arial, sans-serif" font-size="12">
          <text x="18" y="110">Klient</text>
          <text x="194" y="110">Angebot</text>
          <text x="368" y="110">Behörde</text>
          <text x="550" y="110">Familie</text>
        </g>
      </g>

      <g transform="translate(60 260)">
        <rect width="588" height="54" rx="14" fill="#f8fafc" stroke="#dbeafe"/>
        <rect x="14" y="16" width="240" height="10" rx="5" fill="#0f172a" opacity="0.85"/>
        <rect x="14" y="32" width="360" height="8" rx="4" fill="#64748b" opacity="0.35"/>
      </g>

      <g transform="translate(60 328)">
        <rect width="588" height="54" rx="14" fill="#f8fafc" stroke="#dbeafe"/>
        <rect x="14" y="16" width="180" height="10" rx="5" fill="#0f172a" opacity="0.85"/>
        <rect x="14" y="32" width="320" height="8" rx="4" fill="#64748b" opacity="0.35"/>
      </g>
    </g>
  </g>
</svg>
