<svg xmlns="http://www.w3.org/2000/svg" width="900" height="700" viewBox="0 0 900 700">
  <defs>
    <linearGradient id="g2" x1="0" y1="0" x2="1" y2="1">
      <stop offset="0" stop-color="#22c55e"/>
      <stop offset="1" stop-color="#0ea5e9"/>
    </linearGradient>
  </defs>
  <rect width="900" height="700" rx="42" fill="#ffffff"/>
  <rect x="56" y="64" width="788" height="572" rx="28" fill="#f8fafc" stroke="#e5e7eb"/>

  <g transform="translate(110 130)">
    <text x="0" y="0" font-family="system-ui, -apple-system, Segoe UI, Roboto, Arial, sans-serif" font-size="18" font-weight="800" fill="#111827">Plan in 5 Blöcken</text>

    <g transform="translate(0 36)">
      <rect width="520" height="54" rx="14" fill="#ffffff" stroke="#e5e7eb"/>
      <rect x="14" y="16" width="180" height="10" rx="5" fill="#111827" opacity="0.85"/>
      <rect x="14" y="32" width="260" height="8" rx="4" fill="#64748b" opacity="0.35"/>
      <circle cx="484" cy="27" r="10" fill="url(#g2)"/>
    </g>

    <g transform="translate(0 104)">
      <rect width="520" height="54" rx="14" fill="#ffffff" stroke="#e5e7eb"/>
      <rect x="14" y="16" width="220" height="10" rx="5" fill="#111827" opacity="0.85"/>
      <rect x="14" y="32" width="300" height="8" rx="4" fill="#64748b" opacity="0.35"/>
      <circle cx="484" cy="27" r="10" fill="url(#g2)"/>
    </g>

    <g transform="translate(0 172)">
      <rect width="520" height="54" rx="14" fill="#ffffff" stroke="#e5e7eb"/>
      <rect x="14" y="16" width="160" height="10" rx="5" fill="#111827" opacity="0.85"/>
      <rect x="14" y="32" width="240" height="8" rx="4" fill="#64748b" opacity="0.35"/>
      <circle cx="484" cy="27" r="10" fill="url(#g2)"/>
    </g>

    <g transform="translate(0 240)">
      <rect width="520" height="54" rx="14" fill="#ffffff" stroke="#e5e7eb"/>
      <rect x="14" y="16" width="210" height="10" rx="5" fill="#111827" opacity="0.85"/>
      <rect x="14" y="32" width="280" height="8" rx="4" fill="#64748b" opacity="0.35"/>
      <circle cx="484" cy="27" r="10" fill="url(#g2)"/>
    </g>
  </g>

  <g transform="translate(690 170)">
    <circle cx="64" cy="64" r="64" fill="url(#g2)"/>
    <path d="M40 72 L58 90 L92 44" fill="none" stroke="#ffffff" stroke-width="12" stroke-linecap="round" stroke-linejoin="round"/>
  </g>
</svg>
